<?xml version="1.0" encoding="UTF-8"?>
<svg version="1.1" xmlns="http://www.w3.org/2000/svg" width="580" height="418">
<path d="M0 0 C0.66837891 0.34708008 1.33675781 0.69416016 2.02539062 1.05175781 C10.17619552 5.35838877 17.68671793 10.3954287 25 16 C25.74507812 16.55171875 26.49015625 17.1034375 27.2578125 17.671875 C33.90379754 22.67422933 39.95401845 28.30282508 46 34 C46.7115625 34.65742188 47.423125 35.31484375 48.15625 35.9921875 C59.57292576 46.89417705 73.5342521 62.52101777 74.375 78.75 C74.22356156 86.38016746 71.28515038 93.73535759 67 100 C66.34 100 65.68 100 65 100 C64.76667969 100.70382813 64.53335937 101.40765625 64.29296875 102.1328125 C62.7695775 105.51096712 60.71485342 108.09914796 58.3125 110.875 C57.83627197 111.43018311 57.36004395 111.98536621 56.86938477 112.55737305 C48.0210618 122.70737575 38.31254162 133.54563047 27 141 C26.34 141 25.68 141 25 141 C25 141.66 25 142.32 25 143 C-0.15489208 162.78928436 -34.24782705 174.63795717 -66 176 C-66.70737305 176.03174316 -67.41474609 176.06348633 -68.14355469 176.09619141 C-73.1077372 176.28169387 -78.03807445 176.222665 -83 176 C-83.70995117 175.9695459 -84.41990234 175.9390918 -85.15136719 175.90771484 C-113.10909208 174.43921566 -139.35734742 164.5898897 -163 150 C-163.98871094 149.39929688 -164.97742188 148.79859375 -165.99609375 148.1796875 C-183.99709715 136.75275573 -202.58605203 120.15714758 -214 102 C-214 101.34 -214 100.68 -214 100 C-214.99 99.67 -215.98 99.34 -217 99 C-222.53587119 90.97298677 -224.02599486 83.37000313 -222.83203125 73.90234375 C-221.57708045 68.01644776 -219.15364523 63.09212441 -216 58 C-215.34 58 -214.68 58 -214 58 C-213.76796875 57.29746094 -213.5359375 56.59492188 -213.296875 55.87109375 C-211.75918954 52.46688045 -209.67321658 49.85918107 -207.25 47.0625 C-206.53070313 46.22477051 -206.53070313 46.22477051 -205.796875 45.37011719 C-191.39436383 28.8458075 -175.09132548 14.86001686 -156 4 C-154.87722656 3.35933594 -153.75445312 2.71867187 -152.59765625 2.05859375 C-135.34152829 -7.57851305 -115.67750897 -14.63650032 -96 -17 C-95.09765625 -17.11085938 -94.1953125 -17.22171875 -93.265625 -17.3359375 C-61.03274461 -20.63045842 -28.80525929 -14.98031033 0 0 Z M-166 40 C-166.80566406 40.69609375 -167.61132812 41.3921875 -168.44140625 42.109375 C-178.8230601 51.27252487 -187.97132555 60.74312937 -196 72 C-196.86044922 73.06734375 -196.86044922 73.06734375 -197.73828125 74.15625 C-199.26604116 76.05035792 -199.26604116 76.05035792 -199.1875 79.0625 C-195.7461885 96.38006753 -169.60965678 116.87081287 -155.48828125 126.39453125 C-124.88412893 146.50038577 -87.90947867 157.24005565 -51.30859375 150.48388672 C-12.18039396 142.28252335 24.63515816 119.68704301 47 86 C49.38022519 82.04194475 49.38022519 82.04194475 50 77.578125 C48.55598966 73.85528584 46.40854909 70.9159667 44 67.75 C43.475271 67.0576123 42.95054199 66.36522461 42.40991211 65.65185547 C29.09505628 48.56480874 12.81719163 34.66954165 -6 24 C-6.58023926 23.66758301 -7.16047852 23.33516602 -7.75830078 22.99267578 C-58.159352 -5.44043143 -122.62880057 2.33748836 -166 40 Z " fill="#151516" transform="translate(384,124)"/>
<path d="M0 0 C10.25900005 8.04269046 16.78392251 21.16020639 18.66015625 33.87890625 C20.1878238 48.45540082 16.05185108 62.18769188 7.12890625 73.875 C-1.44095167 83.97689955 -13.72414672 91.30866394 -27.05859375 92.5625 C-43.74368328 93.73600374 -57.10037774 89.43907395 -69.93359375 78.6875 C-79.66108785 69.50432416 -85.50432373 56.83583038 -86.2265625 43.44921875 C-86.32254586 27.72714516 -81.75041248 14.29142207 -70.5546875 2.8125 C-49.65518813 -16.02648535 -22.44562949 -15.67360845 0 0 Z M-54.65625 21.31640625 C-59.7591225 27.72320686 -62.68179749 33.98105941 -62.33984375 42.2734375 C-61.41896179 49.76839348 -58.44574926 56.23134403 -53.05859375 61.5625 C-44.8983143 67.4925609 -38.11365284 69.52139305 -28.05859375 68.5625 C-18.14724616 65.95350435 -12.42778934 60.74697553 -7.2578125 52.0625 C-4.37775559 46.05847257 -4.54710392 39.63143896 -5.62109375 33.1875 C-8.68862651 25.45198261 -13.53830594 18.441207 -21.05859375 14.5625 C-32.48921107 9.94628916 -46.17885665 12.00992797 -54.65625 21.31640625 Z " fill="#151515" transform="translate(343.05859375,162.4375)"/>
<path d="M0 0 C0.66 0.33 1.32 0.66 2 1 C0.9010409 2.0989591 -0.19866877 3.1971721 -1.30078125 4.29296875 C-2.62072416 5.61898037 -3.92817379 6.95743321 -5.23046875 8.30078125 C-6.41576172 9.51314453 -6.41576172 9.51314453 -7.625 10.75 C-8.38039063 11.52859375 -9.13578125 12.3071875 -9.9140625 13.109375 C-12 15 -12 15 -15 16 C-11.84255902 9.06601197 -6.51328839 3.81265662 0 0 Z " fill="#868686" transform="translate(281,159)"/>
<path d="M0 0 C0.66 0.33 1.32 0.66 2 1 C0.02 3.97 0.02 3.97 -2 7 C-3.32 6.34 -4.64 5.68 -6 5 C-4.02 3.35 -2.04 1.7 0 0 Z " fill="#787879" transform="translate(396,245)"/>
<path d="M0 0 C0.99 0.33 1.98 0.66 3 1 C2.0409375 2.1446875 2.0409375 2.1446875 1.0625 3.3125 C-1.14232781 5.88246713 -1.14232781 5.88246713 -2 9 C-2.66 9 -3.32 9 -4 9 C-2.94124926 5.59687262 -1.99097846 2.98646769 0 0 Z " fill="#A0A0A2" transform="translate(168,182)"/>
<path d="M0 0 C1 4 1 4 1 4 Z " fill="#FFFFFF" transform="translate(160,201)"/>
</svg>
